<?xml version="1.0" encoding="UTF-8"?>
<svg id="Layer_2" data-name="Layer 2" xmlns="http://www.w3.org/2000/svg" viewBox="0 0 256.19 351.97">
  <g id="Layer_1-2" data-name="Layer 1">
    <g>
      <path d="m131.37.02c7.47-.14,12.63,2.78,15.29,9.03,2.63,6.18,1.83,12.11-2.86,17.31-9.47,10.49-17.56,21.96-23.42,34.83-3.96,8.7-6.6,17.85-7.75,27.45-2.48,20.73,5.54,37.93,17.13,54.28,10.64,15,20.99,30.24,30.76,45.82,7.44,11.86,12.58,24.79,14.48,38.91,2.68,19.88-.9,38.58-9.32,56.63-8.52,18.28-19.84,34.68-32.81,50-4.02,4.76-7.86,9.81-12.53,13.86-9.48,8.22-22.3,1.57-24.97-8.71-1.61-6.18.75-10.87,4.28-15.42,9.62-12.38,19.68-24.45,28.73-37.24,6.94-9.81,11.85-20.78,14.47-32.74,2.87-13.09,1.11-25.54-4.02-37.64-6.32-14.92-16.19-27.69-25.2-40.97-6.84-10.09-14.03-19.96-20.4-30.34-5.91-9.62-9.81-20.24-11.23-31.52-.89-7.08-1.52-14.26-1.48-21.38.06-11.01,2.71-21.63,6.2-32.06,5.74-17.16,14.71-32.51,25.79-46.7,2.35-3.02,5.12-5.71,7.71-8.55C123.38,1.42,127.3-.21,131.37.02Z"/>
      <path d="m198.16,38.32c8.98-.73,15.05,4.9,16.37,13.73.43,2.88-.8,6.23-1.97,9.08-4.07,9.83-8.95,19.35-12.59,29.32-3.94,10.81-2.97,21.88,2.16,32.15,10.09,20.2,20.56,40.22,30.91,60.29,7.88,15.28,14.93,30.86,19.27,47.6,3.13,12.04,4.54,24.26,3.59,36.56-1.74,22.61-11.01,42.37-25.04,59.87-5.81,7.24-12.4,13.89-18.95,20.49-5.26,5.29-12.9,5.98-18.93,1.79-6.53-4.54-9.72-13.11-6.01-19.74,1.36-2.43,2.92-4.87,4.89-6.8,10.59-10.41,20.06-21.66,26.17-35.31,3.12-6.96,4.96-14.28,5.8-21.99,1.92-17.67-2.85-33.89-10.43-49.3-11.49-23.38-23.82-46.35-35.66-69.55-5.63-11.04-10.47-22.51-11.66-34.94-1-10.43.39-20.78,3.43-30.93,3.67-12.26,8.92-23.76,15.22-34.82,2.96-5.2,7.31-8.14,13.43-7.5Z"/>
      <path d="m32.77,59.1c8.12-.56,15.56,6.39,15.98,15.33.14,2.85-1.15,5.93-2.34,8.66-3.6,8.33-7.91,16.37-11.12,24.83-5.2,13.72-3.39,27,3.11,40.14,9.06,18.34,19.91,35.62,30.33,53.16,8.37,14.08,15.9,28.59,19.53,44.8,2.23,9.97,2.47,19.94,1.21,30.06-2.39,19.29-11.55,35.36-23.53,50.06-5.22,6.41-10.83,12.5-16.39,18.64-3.35,3.71-7.51,6.12-12.51,7.07-5.17.99-13.83-4.29-15.91-9.7-2.82-7.33-1.06-13.65,4.34-18.94,10.33-10.12,20.16-20.61,26.87-33.6,4.62-8.94,7.51-18.53,6.12-28.51-1.07-7.69-2.88-15.72-6.42-22.53-8.64-16.66-18.65-32.61-27.76-49.03-9.21-16.62-19.22-32.98-23.17-51.9-1.74-8.33-1.29-16.84.17-25.33,2.49-14.51,8.21-27.77,14.91-40.68,2.61-5.02,4.98-10.51,11.51-11.77,1.67-.32,3.37-.51,5.05-.76Z"/>
    </g>
  </g>
</svg>