<?xml version="1.0" encoding="UTF-8"?>
<svg id="Layer_2" data-name="Layer 2" xmlns="http://www.w3.org/2000/svg" viewBox="0 0 408.78 203.86">
  <defs>
    <style>
      .cls-1 {
        fill: #020202;
      }

      .cls-2 {
        fill: #010101;
      }
    </style>
  </defs>
  <g id="Layer_1-2" data-name="Layer 1">
    <g>
      <path d="m408.78,77.67c-1.32,3.95-2.54,7.94-3.99,11.84-5.85,15.72-16.8,26.36-32.14,33.03-7.92,3.44-16.08,4.3-24.44,4.3-114.04.04-228.09.02-342.13.02-3.64,0-5.88-2.04-6.07-5.53-.21-3.83,1.43-5.8,5.36-6.26,1.58-.18,3.19-.17,4.78-.17,112.31,0,224.63-.09,336.94.09,15.87.02,29.16-4.92,39.37-17.1,5.85-6.97,8.85-15.15,9.65-24.37.96-11.09-1.52-20.98-8.05-29.91-8.63-11.8-20.13-18.1-34.88-18.69-10.23-.41-19.5,1.73-27.84,7.88-10.94,8.05-17.39,18.61-18.75,32.2-.22,2.2-.45,4.42-.94,6.57-.64,2.8-3.78,4.3-7.3,3.69-2.6-.45-4.98-4.06-4.52-7.3,1.18-8.27,2.48-16.5,6.43-24.08,8.9-17.1,23.03-27.82,41.73-30.55,16.46-2.4,32.32,1.03,45.68,12.41,10.49,8.93,17.39,19.72,19.56,33.42.19,1.17,1.01,2.24,1.54,3.36v15.17Z"/>
      <path class="cls-2" d="m169.03,88.36c-19.42,0-38.85.02-58.27-.03-2.64,0-5.43.39-7.33-2.44-2.39-3.56-1.27-7.78,2.83-8.99,1.74-.51,3.67-.5,5.51-.5,36.45-.03,72.91-.11,109.36.04,10.39.04,19.04-3.25,26.15-10.89,8.66-9.29,10.65-23.47,5.73-34.55-4.45-10.02-12.43-16.6-22.94-18.48-18.42-3.28-35.25,6.55-38.45,26.77-.38,2.42-.37,5.05-1.38,7.18-1.37,2.87-4.49,4.45-7.29,3-1.9-.99-3.93-3.94-3.92-6.01.03-9.96,3.18-19.12,9.49-26.89,5.8-7.15,12.92-12.78,22.07-14.94,14.16-3.36,27.55-1.82,39.55,7.2,13.56,10.2,18.85,24.21,17.2,40.49-1.41,13.97-8.84,24.82-20.91,32.39-7.61,4.77-15.86,6.67-24.71,6.65-17.56-.03-35.12,0-52.68,0Z"/>
      <path d="m242.71,203.7c-22.88,0-45.77,0-68.65,0-4.99,0-8.12-2.52-8-6.36.11-3.39,3.2-5.6,8.05-5.61,46.17-.01,92.34.15,138.51-.11,13.55-.08,23.01-11.64,18.72-25.94-2.73-9.13-11.14-14.13-21.51-12.81-7.69.98-15.1,6.84-16.1,16.4-.27,2.55-1.3,5.35-2.88,7.32-.88,1.1-4.29,1.61-5.36.8-1.95-1.47-4.38-4.25-4.2-6.26.75-8.36,3.5-16.11,10.07-21.97,7.6-6.78,16.09-9.45,26.46-7.79,11.02,1.76,18.92,7.37,23.44,17.06,8.68,18.6-1.1,38.91-21.35,44.46-2.97.81-6.22.77-9.34.78-22.62.06-45.24.03-67.86.03Z"/>
      <path d="m172.04,165.28c-21,0-42.01,0-63.01,0-4.39,0-6.82-2.19-6.85-6.09-.03-3.72,2.12-5.81,6.64-5.83,18.74-.08,37.49-.05,56.23-.05,22.86,0,45.73,0,68.59.02,1.58,0,3.36-.17,4.71.47,2.62,1.25,4.33,3.5,3.53,6.6-.76,2.97-2.74,4.86-6.04,4.87-6.38.02-12.76.02-19.14.02-14.89,0-29.78,0-44.67,0Z"/>
      <path d="m140.26,49.88c-4.25,0-8.5.1-12.74-.03-3.46-.11-6.11-2.64-6.16-5.77-.05-3.63,2.35-5.75,5.48-5.87,8.74-.35,17.52-.35,26.27-.09,3.63.1,6.05,3.34,5.78,6.51-.24,2.87-3.14,5.24-6.68,5.3-3.98.07-7.96.02-11.95.02,0-.02,0-.04,0-.05Z"/>
      <path d="m382.99,165.29c-3.98,0-7.95.02-11.93,0-3.46-.02-6.02-2.11-6.2-5.02-.27-4.46,1.3-6.69,5.53-6.8,8.61-.21,17.23-.23,25.84-.05,4.04.09,5.49,2.18,5.36,6.54-.09,3.01-2.54,5.28-5.88,5.33-4.24.05-8.48.01-12.72,0Z"/>
      <path class="cls-2" d="m139.64,203.83c-1.98,0-3.97.08-5.95-.02-3.22-.16-5.91-2.88-5.96-5.92-.06-3.12,2.51-5.89,5.85-6,3.96-.13,7.93-.05,11.9-.03,4.08.02,6.82,2.26,7.02,5.67.19,3.32-2.82,6.11-6.91,6.29-1.98.09-3.97.02-5.95.02Z"/>
      <path class="cls-2" d="m76.1,76.87c2.12,0,4.25-.02,6.37,0,3.31.04,6.22,2.76,6.16,5.72-.06,2.79-2.95,5.36-6.04,5.46-4.45.14-8.9.38-13.36.49-2.41.06-5.39-3.37-5.38-6.06.01-3.38,1.61-5.44,5.08-5.63,2.38-.13,4.78-.03,7.17-.03,0,.01,0,.03,0,.04Z"/>
      <path class="cls-2" d="m82.14,164.74c-2.95.34-5.15-1.54-5.52-4.72-.38-3.28,1.64-6.09,4.63-6.47,3.49-.44,6.87,1.85,7.34,4.98.46,3.11-2.26,5.73-6.45,6.21Z"/>
      <path class="cls-1" d="m44.4,88.05c-3.77.05-6.01-1.92-6.1-5.38-.11-3.77,1.79-5.7,5.72-5.8,3.19-.08,6.25,2.64,6.29,5.59.03,2.82-2.85,5.56-5.91,5.6Z"/>
    </g>
  </g>
</svg>