<?xml version="1.0" encoding="UTF-8"?>
<svg id="Layer_2" data-name="Layer 2" xmlns="http://www.w3.org/2000/svg" viewBox="0 0 10.47 16.21">
  <defs>
    <style>
      .cls-1 {
        fill: #ddd;
      }

      .cls-2 {
        fill: #eee;
      }

      .cls-3 {
        fill: #010101;
      }
    </style>
  </defs>
  <g id="Layer_1-2" data-name="Layer 1">
    <g>
      <path d="m5.34,16.21c-.58,0-1.16.01-1.74,0-.52-.01-1.04-.51-1.05-1.01,0-.82,0-1.64,0-2.46,0-.12.03-.24.08-.34.12-.21.12-.42.1-.66-.03-.45-.14-.88-.29-1.29-.19-.51-.46-.97-.83-1.37-.72-.76-1.26-1.63-1.49-2.67C0,5.84-.03,5.28.02,4.71c.09-.89.38-1.7.88-2.44.61-.9,1.41-1.54,2.43-1.92.44-.16.89-.27,1.35-.32,1.13-.11,2.18.1,3.16.66,1,.57,1.72,1.4,2.19,2.46.38.85.47,1.73.4,2.63-.08,1.02-.44,1.95-1.11,2.74-.29.34-.6.67-.86,1.04-.35.49-.54,1.05-.62,1.65-.02.12-.06.24-.06.35,0,.19-.05.37.12.55.2.2.26.49.25.78,0,.69,0,1.38,0,2.07,0,.69-.54,1.23-1.21,1.22-.54,0-1.08,0-1.61,0,0,0,0,0,0,.01Zm2.09-2.48H3.26s-.02.02-.03.03c0,.13,0,.26,0,.39,0,0,.02.02.03.03h4.18s.02-.02.03-.03c0-.13,0-.26,0-.39,0,0-.02-.02-.03-.03Zm-4.21-.71s.02.02.03.03h4.18s.02-.02.03-.03c0-.03,0-.07,0-.1.05-.39-.2-.53-.52-.53-1.09,0-2.17,0-3.26,0-.21,0-.36.09-.43.28-.04.11-.02.24-.03.36Zm.03,1.84s-.02.02-.03.03c0,.06,0,.12,0,.18,0,.31.15.46.46.47.26,0,.53,0,.79,0,.84,0,1.67,0,2.51,0,.26,0,.41-.09.47-.29.03-.11.01-.23.01-.35,0,0-.02-.02-.03-.03H3.26Zm3.9-3.17c.05-.29.08-.56.14-.83.22-.98.69-1.83,1.39-2.56.42-.44.72-.95.92-1.52.18-.51.26-1.04.25-1.59,0-.42-.03-.83-.14-1.23-.23-.83-.64-1.56-1.29-2.13-.29-.25-.61-.49-.94-.69-.49-.29-1.04-.45-1.61-.51-.35-.04-.7-.01-1.05,0-.51.01-.98.17-1.44.37-.69.31-1.27.77-1.73,1.38-.59.78-.88,1.68-.93,2.65-.01.3.02.61.07.91.08.49.26.96.49,1.4.26.49.65.87.99,1.3.7.89,1.13,1.89,1.22,3.03h1.51v-3.65h.68v3.65h1.46Z"/>
      <path class="cls-2" d="m3.23,13.01s.02.02.03.03c0,0-.02-.02-.03-.03Z"/>
      <path class="cls-2" d="m7.44,13.04s.02-.02.03-.03c0,0-.02.02-.03.03Z"/>
      <path class="cls-1" d="m3.26,13.72l-.03.03.03-.03Z"/>
      <path class="cls-1" d="m7.46,13.75s-.02-.02-.03-.03c0,0,.02.02.03.03Z"/>
      <path class="cls-2" d="m3.23,14.14s.02.02.03.03c0,0-.02-.02-.03-.03Z"/>
      <path class="cls-2" d="m7.44,14.17s.02-.02.03-.03c0,0-.02.02-.03.03Z"/>
      <path class="cls-1" d="m3.26,14.85s-.02.02-.03.03c0,0,.02-.02.03-.03Z"/>
      <path class="cls-1" d="m7.46,14.88s-.02-.02-.03-.03c0,0,.02.02.03.03Z"/>
      <path class="cls-3" d="m5.07,6q.24.21.47,0c.23.23.47.46.7.7.09.1.15.09.24,0,.22-.24.46-.47.7-.71.17.15.34.28.52.44-.35.35-.69.7-1.05,1.03-.16.15-.44.11-.61-.06-.25-.25-.49-.5-.75-.76-.26.26-.51.5-.74.77-.17.19-.42.17-.58,0-.31-.33-.64-.65-.96-.96.15-.15.29-.29.44-.44.22.22.46.45.69.69.09.09.15.1.24,0,.22-.24.46-.47.7-.71Z"/>
    </g>
  </g>
</svg>